<svg xmlns="http://www.w3.org/2000/svg" viewBox="0 0 108 108">
  <defs>
    <radialGradient id="bg" cx="54" cy="54" r="54" gradientUnits="userSpaceOnUse">
      <stop offset="0" stop-color="#1A1D3A"/><stop offset="0.6" stop-color="#131628"/><stop offset="1" stop-color="#0F1020"/>
    </radialGradient>
  </defs>
  <rect width="108" height="108" rx="24" fill="url(#bg)"/>
  <path fill-rule="evenodd" fill="#F5F7FF" d="M28,21 L28,87 L38,87 L38,58 L48,58 L62,87 L72,87 L58,56 Q69,53 69,41 Q69,21 52,21 Z M38,28 L51,28 Q62,28 62,41 Q62,54 51,54 L38,54 Z"/>
  <g fill="none" stroke-linecap="round">
    <path stroke="#29D3C2" stroke-opacity="0.8" stroke-width="3" d="M72,45 Q82,54 72,63"/>
    <path stroke="#9490FF" stroke-opacity="0.67" stroke-width="2.5" d="M75,39 Q91,54 75,69"/>
    <path stroke="#29D3C2" stroke-opacity="0.47" stroke-width="2" d="M78,33 Q100,54 78,75"/>
  </g>
</svg>
